{"title":"Accidental Love 2015 Movies HDRip XViD ESubs AAC +Sample â˜»rDXâ˜»","uid":11692366,"size":739187723,"categoryP":"video","categoryS":"movies","magnet":"?xt=urn:btih:62947815229f738ca83f9cbe9e80906c27cfdeb9&amp;dn=Accidental+Love+2015+Movies+HDRip+XViD+ESubs+AAC+%2BSample+%E2%98%BBrDX%E2%98%BB&amp;tr=udp%3A%2F%2Ftracker.openbittorrent.com%3A80&amp;tr=udp%3A%2F%2Fopen.demonii.com%3A1337&amp;tr=udp%3A%2F%2Ftracker.coppersurfer.tk%3A6969&amp;tr=udp%3A%2F%2Fexodus.desync.com%3A6969","seeders":10,"leechers":3,"uploader":"basicssom","files":3,"time":1423590957,"description":"----------------------------------------------------------------\nAccidental Love 2015 English Movies HDRip XViD ESubs AAC with Sample ~ â˜»rDXâ˜»\n\nSCREEN SHOTS &amp; POSTER:\n &lt;a href=&quot;\nhttp://istoreimg.co.nr/2015/2/AccidentalLove/11.html&quot; rel=&quot;nofollow&quot; target=&quot;_NEW&quot;&gt;\nhttp://istoreimg.co.nr/2015/2/AccidentalLove/11.html&lt;/a&gt; &lt;a href=&quot;\nhttp://istoreimg.co.nr/2015/2/AccidentalLove/1.html&quot; rel=&quot;nofollow&quot; target=&quot;_NEW&quot;&gt;\nhttp://istoreimg.co.nr/2015/2/AccidentalLove/1.html&lt;/a&gt; &lt;a href=&quot;\nhttp://istoreimg.co.nr/2015/2/AccidentalLove/2.html&quot; rel=&quot;nofollow&quot; target=&quot;_NEW&quot;&gt;\nhttp://istoreimg.co.nr/2015/2/AccidentalLove/2.html&lt;/a&gt; &lt;a href=&quot;\nhttp://istoreimg.co.nr/2015/2/AccidentalLove/3.html&quot; rel=&quot;nofollow&quot; target=&quot;_NEW&quot;&gt;\nhttp://istoreimg.co.nr/2015/2/AccidentalLove/3.html&lt;/a&gt; &lt;a href=&quot;\nhttp://istoreimg.co.nr/2015/2/AccidentalLove/4.html&quot; rel=&quot;nofollow&quot; target=&quot;_NEW&quot;&gt;\nhttp://istoreimg.co.nr/2015/2/AccidentalLove/4.html&lt;/a&gt; &lt;a href=&quot;\nhttp://istoreimg.co.nr/2015/2/AccidentalLove/5.html&quot; rel=&quot;nofollow&quot; target=&quot;_NEW&quot;&gt;\nhttp://istoreimg.co.nr/2015/2/AccidentalLove/5.html&lt;/a&gt; &lt;a href=&quot;\nhttp://istoreimg.co.nr/2015/2/AccidentalLove/6.html&quot; rel=&quot;nofollow&quot; target=&quot;_NEW&quot;&gt;\nhttp://istoreimg.co.nr/2015/2/AccidentalLove/6.html&lt;/a&gt; &lt;a href=&quot;\nhttp://istoreimg.co.nr/2015/2/AccidentalLove/7.html&quot; rel=&quot;nofollow&quot; target=&quot;_NEW&quot;&gt;\nhttp://istoreimg.co.nr/2015/2/AccidentalLove/7.html&lt;/a&gt; &lt;a href=&quot;\nhttp://istoreimg.co.nr/2015/2/AccidentalLove/8.html&quot; rel=&quot;nofollow&quot; target=&quot;_NEW&quot;&gt;\nhttp://istoreimg.co.nr/2015/2/AccidentalLove/8.html&lt;/a&gt; &lt;a href=&quot;\nhttp://istoreimg.co.nr/2015/2/AccidentalLove/9.html&quot; rel=&quot;nofollow&quot; target=&quot;_NEW&quot;&gt;\nhttp://istoreimg.co.nr/2015/2/AccidentalLove/9.html&lt;/a&gt; &lt;a href=&quot;\nhttp://istoreimg.co.nr/2015/2/AccidentalLove/10.html&quot; rel=&quot;nofollow&quot; target=&quot;_NEW&quot;&gt;\nhttp://istoreimg.co.nr/2015/2/AccidentalLove/10.html&lt;/a&gt;\n\nFormat                                   : Matroska\nFormat version                           : Version 4 / Version 2\nFile size                                : 694 MiB\nDuration                                 : 1h 40mn\nOverall bit rate                         : 965 Kbps\nMovie name                               : Accidental Love 2015 English Movies HDRip XViD ESubs AAC ~ rDX ~\n\nVideo\nID                                       : 1\nFormat                                   : MPEG-4 Visual\nFormat profile                           : Advanced Simple@L5\nFormat settings, BVOP                    : Yes\nFormat settings, QPel                    : No\nFormat settings, GMC                     : No warppoints\nFormat settings, Matrix                  : Default (H.263)\nCodec ID                                 : V_MS/VFW/FOURCC / XVID\nCodec ID/Hint                            : XviD\nDuration                                 : 1h 40mn\nBit rate                                 : 834 Kbps\nWidth                                    : 640 pixels\nHeight                                   : 352 pixels\nDisplay aspect ratio                     : 16:9\nFrame rate mode                          : Constant\nFrame rate                               : 23.976 fps\nColor space                              : YUV\nChroma subsampling                       : 4:2:0\nBit depth                                : 8 bits\nScan type                                : Progressive\nCompression mode                         : Lossy\nBits/(Pixel*Frame)                       : 0.154\nStream size                              : 600 MiB (86%)\nTitle                                    : ~ rDX ~\nWriting library                          : XviD 64\nDefault                                  : Yes\nForced                                   : No\n\nAudio\nID                                       : 2\nFormat                                   : MPEG Audio\nFormat version                           : Version 1\nFormat profile                           : Layer 3\nMode                                     : Joint stereo\nMode extension                           : MS Stereo\nCodec ID                                 : A_MPEG/L3\nCodec ID/Hint                            : MP3\nDuration                                 : 1h 40mn\nBit rate mode                            : Constant\nBit rate                                 : 112 Kbps\nChannel(s)                               : 2 channels\nSampling rate                            : 48.0 KHz\nCompression mode                         : Lossy\nStream size                              : 80.5 MiB (12%)\nTitle                                    : ~ rDX ~\nWriting library                          : LAME3.99r\nEncoding settings                        : -m j -V 4 -q 3 -lowpass 15.6 -b 112\nDefault                                  : Yes\nForced                                   : No","torrent":{"xt":"urn:btih:62947815229f738ca83f9cbe9e80906c27cfdeb9","amp;dn":"Accidental+Love+2015+Movies+HDRip+XViD+ESubs+AAC+%2BSample+%E2%98%BBrDX%E2%98%BB","amp;tr":["udp%3A%2F%2Ftracker.openbittorrent.com%3A80","udp%3A%2F%2Fopen.demonii.com%3A1337","udp%3A%2F%2Ftracker.coppersurfer.tk%3A6969","udp%3A%2F%2Fexodus.desync.com%3A6969"],"infoHash":"62947815229f738ca83f9cbe9e80906c27cfdeb9","infoHashBuffer":{"type":"Buffer","data":[98,148,120,21,34,159,115,140,168,63,156,190,158,128,144,108,39,207,222,185]},"announce":[],"urlList":[]}}